<?xml version="1.0" encoding="UTF-8"?>
<svg width="39px" height="39px" viewBox="0 0 39 39" version="1.1" xmlns="http://www.w3.org/2000/svg" xmlns:xlink="http://www.w3.org/1999/xlink">
    <!-- Generator: Sketch 51.1 (57501) - http://www.bohemiancoding.com/sketch -->
    <title>Facebook_White</title>
    <desc>Created with Sketch.</desc>
    <defs></defs>
    <g id="Web-Blue-Marks" stroke="none" stroke-width="1" fill="none" fill-rule="evenodd">
        <g id="Web" transform="translate(-464.000000, -3338.000000)" fill="#FFFFFF">
            <g id="Group-3" transform="translate(464.000000, 3338.000000)">
                <g id="Facebook">
                    <path d="M0,19.1666667 C0,8.58120844 8.58120844,0 19.1666667,0 C29.7521249,0 38.3333333,8.58120844 38.3333333,19.1666667 C38.3333333,29.7521249 29.7521249,38.3333333 19.1666667,38.3333333 C8.58120844,38.3333333 0,29.7521249 0,19.1666667 Z M20.5255475,29.7973599 L20.5255475,19.3696813 L23.4040428,19.3696813 L23.7855056,15.7762455 L20.5255475,15.7762455 L20.530438,13.9776963 C20.530438,13.0404729 20.6194868,12.5382872 21.9656102,12.5382872 L23.7651283,12.5382872 L23.7651283,8.94444444 L20.8862254,8.94444444 C17.4282001,8.94444444 16.2110648,10.6876474 16.2110648,13.6191666 L16.2110648,15.7766525 L14.0555556,15.7766525 L14.0555556,19.3700882 L16.2110648,19.3700882 L16.2110648,29.7973599 L20.5255475,29.7973599 Z" id="Combined-Shape"></path>
                </g>
            </g>
        </g>
    </g>
</svg>