<?xml version="1.0" encoding="UTF-8"?>
<svg width="39px" height="40px" viewBox="0 0 39 40" version="1.1" xmlns="http://www.w3.org/2000/svg" xmlns:xlink="http://www.w3.org/1999/xlink">
    <!-- Generator: Sketch 51.1 (57501) - http://www.bohemiancoding.com/sketch -->
    <title>Instagram_White</title>
    <desc>Created with Sketch.</desc>
    <defs></defs>
    <g id="Web-Blue-Marks" stroke="none" stroke-width="1" fill="none" fill-rule="evenodd">
        <g id="Web" transform="translate(-886.000000, -3338.000000)" fill="#FFFFFF">
            <g id="Group-3" transform="translate(464.000000, 3338.000000)">
                <g id="Instagram" transform="translate(422.500000, 0.833333)">
                    <path d="M0,19.1666667 C0,8.58120844 8.58120844,0 19.1666667,0 C29.7521249,0 38.3333333,8.58120844 38.3333333,19.1666667 C38.3333333,29.7521249 29.7521249,38.3333333 19.1666667,38.3333333 C8.58120844,38.3333333 0,29.7521249 0,19.1666667 Z M19.167625,8.94444444 C16.3914109,8.94444444 16.0429999,8.95658346 14.9526181,9.00620435 C13.8643661,9.0560382 13.1215435,9.22832703 12.4715738,9.4811167 C11.7992427,9.74221201 11.2289219,10.0914749 10.6607308,10.659879 C10.0921138,11.2280701 9.74285091,11.7983908 9.48090374,12.470509 C9.22747517,13.1206917 9.05497337,13.8637272 9.00599138,14.9515533 C8.95722236,16.041935 8.94444444,16.390559 8.94444444,19.1667731 C8.94444444,21.9429873 8.95679642,22.2903335 9.00620435,23.3807152 C9.05625116,24.4689673 9.22854,25.2117898 9.4811167,25.8617596 C9.74242498,26.5340906 10.0916879,27.1044114 10.6600919,27.6726025 C11.2280701,28.2412195 11.7983908,28.5913343 12.470296,28.8524296 C13.1206917,29.1052193 13.8637272,29.2775081 14.9517663,29.327342 C16.042148,29.3769628 16.3903461,29.3891019 19.1663472,29.3891019 C21.9427743,29.3891019 22.2901205,29.3769628 23.3805022,29.327342 C24.4687543,29.2775081 25.2124287,29.1052193 25.8628244,28.8524296 C26.5349425,28.5913343 27.1044114,28.2412195 27.6723895,27.6726025 C28.2410066,27.1044114 28.5902695,26.5340906 28.8522166,25.8619725 C29.1035155,25.2117898 29.2760173,24.4687543 29.327129,23.3809282 C29.376111,22.2905464 29.3888889,21.9429873 29.3888889,19.1667731 C29.3888889,16.390559 29.376111,16.042148 29.327129,14.9517663 C29.2760173,13.8635142 29.1035155,13.1206917 28.8522166,12.4707219 C28.5902695,11.7983908 28.2410066,11.2280701 27.6723895,10.659879 C27.1037725,10.0912619 26.5351555,9.74199905 25.8621855,9.4811167 C25.210512,9.22832703 24.4672635,9.0560382 23.3790115,9.00620435 C22.2886297,8.95658346 21.9414965,8.94444444 19.1644305,8.94444444 L19.167625,8.94444444 Z" id="Combined-Shape"></path>
                    <path d="M18.2505969,10.7865933 C18.5227664,10.7861673 18.8264548,10.7865933 19.167625,10.7865933 C21.8969868,10.7865933 22.2204809,10.7963897 23.2982977,10.8453717 C24.2949747,10.8909462 24.8359063,11.057485 25.1962434,11.1974031 C25.6732854,11.3826828 26.0133908,11.6041666 26.3709593,11.9619481 C26.7287408,12.3197296 26.9502246,12.6604739 27.1359302,13.1375159 C27.2758484,13.4974271 27.4426001,14.0383586 27.4879617,15.0350357 C27.5369437,16.1126395 27.5475919,16.4363466 27.5475919,19.1644305 C27.5475919,21.8925145 27.5369437,22.2162216 27.4879617,23.2938254 C27.4423871,24.2905024 27.2758484,24.831434 27.1359302,25.1913452 C26.9506505,25.6683872 26.7287408,26.0080666 26.3709593,26.3656352 C26.0131778,26.7234167 25.6734983,26.9449005 25.1962434,27.1301802 C24.8363322,27.2707372 24.2949747,27.43685 23.2982977,27.4824246 C22.2206938,27.5314066 21.8969868,27.5420548 19.167625,27.5420548 C16.4380503,27.5420548 16.1145562,27.5314066 15.0369524,27.4824246 C14.0402753,27.4364241 13.4993437,27.2698853 13.1387937,27.1299672 C12.6617517,26.9446875 12.3210074,26.7232037 11.9632259,26.3654222 C11.6054444,26.0076407 11.3839606,25.6677483 11.198255,25.1904933 C11.0583368,24.8305821 10.8915851,24.2896506 10.8462235,23.2929735 C10.7972415,22.2153697 10.7874451,21.8916626 10.7874451,19.161875 C10.7874451,16.4320873 10.7972415,16.1100839 10.8462235,15.0324801 C10.8917981,14.035803 11.0583368,13.4948715 11.198255,13.1345344 C11.3835347,12.6574924 11.6054444,12.3167481 11.9632259,11.9589666 C12.3210074,11.6011851 12.6617517,11.3797013 13.1387937,11.1939957 C13.4991308,11.0534386 14.0402753,10.8873258 15.0369524,10.8415383 C15.9799622,10.7989452 16.3454104,10.7861673 18.2505969,10.7840377 L18.2505969,10.7865933 Z M24.6242189,12.4839258 C23.9469896,12.4839258 23.3975394,13.032737 23.3975394,13.7101793 C23.3975394,14.3874085 23.9469896,14.9368587 24.6242189,14.9368587 C25.3014482,14.9368587 25.8508983,14.3874085 25.8508983,13.7101793 C25.8508983,13.03295 25.3014482,12.4834998 24.6242189,12.4834998 L24.6242189,12.4839258 Z M19.167625,13.9171814 C16.26853,13.9171814 13.9180333,16.2676781 13.9180333,19.1667731 C13.9180333,22.0658682 16.26853,24.4153 19.167625,24.4153 C22.06672,24.4153 24.4163649,22.0658682 24.4163649,19.1667731 C24.4163649,16.2676781 22.0665071,13.9171814 19.167412,13.9171814 L19.167625,13.9171814 Z" id="Combined-Shape"></path>
                    <path d="M19.167625,15.7593302 C21.0493854,15.7593302 22.5750679,17.2847998 22.5750679,19.1667731 C22.5750679,21.0485335 21.0493854,22.5742161 19.167625,22.5742161 C17.2856517,22.5742161 15.7601821,21.0485335 15.7601821,19.1667731 C15.7601821,17.2847998 17.2856517,15.7593302 19.167625,15.7593302 L19.167625,15.7593302 Z" id="Shape"></path>
                </g>
            </g>
        </g>
    </g>
</svg>