<?xml version="1.0" encoding="UTF-8"?>
<svg width="39px" height="39px" viewBox="0 0 39 39" version="1.1" xmlns="http://www.w3.org/2000/svg" xmlns:xlink="http://www.w3.org/1999/xlink">
    <!-- Generator: Sketch 51.1 (57501) - http://www.bohemiancoding.com/sketch -->
    <title>LinkedIN_White</title>
    <desc>Created with Sketch.</desc>
    <defs></defs>
    <g id="Web-Blue-Marks" stroke="none" stroke-width="1" fill="none" fill-rule="evenodd">
        <g id="Web" transform="translate(-728.000000, -3338.000000)" fill="#FFFFFF">
            <g id="Group-3" transform="translate(464.000000, 3338.000000)">
                <g id="LinkedIN" transform="translate(264.166667, 0.000000)">
                    <path d="M0,19.1666667 C0,8.58120844 8.58120844,0 19.1666667,0 C29.7521249,0 38.3333333,8.58120844 38.3333333,19.1666667 C38.3333333,29.7521249 29.7521249,38.3333333 19.1666667,38.3333333 C8.58120844,38.3333333 0,29.7521249 0,19.1666667 Z M13.5448773,15.8746705 L9.20129146,15.8746705 L9.20129146,28.9253429 L13.5448773,28.9253429 L13.5448773,15.8746705 Z M13.8309568,11.8375711 C13.8027652,10.5579609 12.8877098,9.58333333 11.4017964,9.58333333 C9.91588306,9.58333333 8.94444444,10.5579609 8.94444444,11.8375711 C8.94444444,13.0906761 9.88717102,14.093368 11.3454132,14.093368 L11.3731711,14.093368 C12.8877098,14.093368 13.8309568,13.0906761 13.8309568,11.8375711 Z M29.2095093,21.4424862 C29.2095093,17.4338841 27.0666887,15.5682155 24.208409,15.5682155 C21.9022507,15.5682155 20.8697448,16.8349195 20.2932486,17.7235353 L20.2932486,15.875017 L15.9491423,15.875017 C16.0063929,17.0996246 15.9491423,28.9256893 15.9491423,28.9256893 L20.2932486,28.9256893 L20.2932486,21.6371172 C20.2932486,21.2470756 20.3214402,20.8579868 20.4362883,20.5787298 C20.7502125,19.7995128 21.4649776,18.9927512 22.6649849,18.9927512 C24.2373813,18.9927512 24.8659235,20.1894678 24.8659235,21.9432258 L24.8659235,28.9253429 L29.2093358,28.9253429 L29.2095093,21.4424862 Z" id="Combined-Shape"></path>
                </g>
            </g>
        </g>
    </g>
</svg>