<?xml version="1.0" encoding="UTF-8"?>
<svg width="39px" height="39px" viewBox="0 0 39 39" version="1.1" xmlns="http://www.w3.org/2000/svg" xmlns:xlink="http://www.w3.org/1999/xlink">
    <!-- Generator: Sketch 51.1 (57501) - http://www.bohemiancoding.com/sketch -->
    <title>reddit</title>
    <desc>Created with Sketch.</desc>
    <defs></defs>
    <g id="Web-Blue-Marks" stroke="none" stroke-width="1" fill="none" fill-rule="evenodd">
        <g id="Web" transform="translate(-780.000000, -3339.000000)" fill="#FFFFFF" fill-rule="nonzero">
            <g id="Group-3" transform="translate(464.000000, 3338.000000)">
                <g id="reddit" transform="translate(316.666667, 1.666667)">
                    <path d="M22.9151786,24.4205357 C23.1383929,24.64375 23.1383929,24.8598214 22.9151786,25.06875 C22.0508929,25.9330357 20.6625,26.3651786 18.75,26.3651786 C16.8375,26.3651786 15.4491071,25.9330357 14.5848214,25.06875 C14.3616071,24.8598214 14.3616071,24.64375 14.5848214,24.4205357 C14.66875,24.3366072 14.7732143,24.2946429 14.8982143,24.2946429 C15.0232143,24.2946429 15.1276786,24.3366072 15.2116071,24.4205357 C15.88125,25.1044643 17.0598214,25.4464286 18.7473214,25.4464286 C20.4205357,25.4464286 21.5991071,25.1044643 22.2830357,24.4205357 C22.3669642,24.3366072 22.4714285,24.2946429 22.5964285,24.2946429 C22.7214285,24.2946429 22.8258928,24.3366072 22.9098214,24.4205357 L22.9151786,24.4205357 Z M16.4892857,20.6330357 C16.4892857,21.1491072 16.3080357,21.5883929 15.9455357,21.9508929 C15.5830357,22.3133929 15.14375,22.4946429 14.6276786,22.4946429 C14.1116071,22.4946429 13.66875,22.3133929 13.2991072,21.9508929 C12.9294643,21.5883929 12.7446429,21.1491072 12.7446429,20.6330357 C12.7446429,20.1026786 12.9294643,19.65625 13.2991072,19.29375 C13.66875,18.93125 14.1116071,18.75 14.6276786,18.75 C15.14375,18.75 15.5830357,18.9348214 15.9455357,19.3044643 C16.3080357,19.6741071 16.4892857,20.1169643 16.4892857,20.6330357 Z M24.7553572,20.6330357 C24.7553572,21.1491072 24.5705357,21.5883929 24.2008929,21.9508929 C23.83125,22.3133929 23.3883929,22.4946429 22.8723215,22.4946429 C22.35625,22.4946429 21.9169643,22.3133929 21.5544643,21.9508929 C21.1919643,21.5883929 21.0107143,21.1491072 21.0107143,20.6330357 C21.0107143,20.1169643 21.1919643,19.6741072 21.5544643,19.3044643 C21.9169643,18.9348215 22.35625,18.75 22.8723215,18.75 C23.3883929,18.75 23.83125,18.93125 24.2008929,19.29375 C24.5705357,19.65625 24.7553572,20.1026786 24.7553572,20.6330358 Z M30.0080357,18.1232143 C30.0080357,17.4392857 29.7642857,16.8535714 29.2767857,16.3660714 C28.7892857,15.8785714 28.1964286,15.6348214 27.4982143,15.6348214 C26.8,15.6348214 26.2,15.8857143 25.6982143,16.3875 C23.8839286,15.1321428 21.7142857,14.4625 19.1892857,14.3785714 L20.5071429,8.45625 L24.69375,9.39910715 C24.69375,9.91517859 24.875,10.3544643 25.2375,10.7169643 C25.6,11.0794643 26.0392858,11.2607143 26.5553572,11.2607143 C27.0714286,11.2607143 27.5142858,11.0758929 27.8839286,10.70625 C28.2535715,10.3366072 28.4383929,9.89375005 28.4383929,9.37767861 C28.4383929,8.86160718 28.2535715,8.41875004 27.8839286,8.04910719 C27.5142858,7.67946434 27.0714286,7.49464292 26.5553572,7.49464292 C25.8017858,7.49464292 25.24375,7.84375006 24.88125,8.54196434 L20.2553572,7.5160715 C19.9910715,7.44642865 19.8169643,7.55803579 19.7330358,7.85089292 L18.2892858,14.3812501 C15.7785715,14.4794644 13.6232143,15.1562501 11.8232143,16.4116072 C11.3357143,15.8955358 10.7285715,15.6375001 10.0017858,15.6375001 C9.30357148,15.6375001 8.71071434,15.8812501 8.22321434,16.3687501 C7.73571434,16.8562501 7.49196434,17.4419644 7.49196434,18.1258929 C7.49196434,18.6133929 7.62142863,19.0598215 7.88035719,19.4651786 C8.13928575,19.8705358 8.48482147,20.1776787 8.91696434,20.3866072 C8.83303578,20.7633929 8.7910715,21.1544644 8.7910715,21.5598215 C8.7910715,23.5401786 9.76785721,25.2348215 11.7214286,26.6437501 C13.6750001,28.0526786 16.0258929,28.7571429 18.7741072,28.7571429 C21.5366072,28.7571429 23.8946429,28.0526786 25.8482144,26.6437501 C27.8017858,25.2348215 28.7785715,23.5401786 28.7785715,21.5598215 C28.7785715,21.1133929 28.7294644,20.7160715 28.6312501,20.3678572 C29.0491073,20.1589287 29.3839287,19.8553572 29.6357144,19.457143 C29.8875001,19.0589287 30.0133929,18.6160715 30.013393,18.1285715 L30.0080357,18.1232143 Z M37.5,18.75 C37.5,21.2892857 37.0044643,23.7169643 36.0133928,26.0330357 C35.0223214,28.3491072 33.6901786,30.34375 32.0169643,32.0169643 C30.34375,33.6901786 28.3491071,35.0223214 26.0330357,36.0133929 C23.7169643,37.0044643 21.2892857,37.5 18.75,37.5 C16.2107142,37.5 13.7830357,37.0044643 11.4669642,36.0133929 C9.1508928,35.0223214 7.15624994,33.6901786 5.48303566,32.0169643 C3.80982137,30.34375 2.47767852,28.3491072 1.48660708,26.0330357 C0.495535645,23.7169643 -7.31646787e-08,21.2892857 -7.31646798e-08,18.75 C-7.31646808e-08,16.2107143 0.495535645,13.7830357 1.48660708,11.4669643 C2.47767852,9.15089283 3.80982137,7.15624998 5.48303566,5.48303569 C7.15624994,3.80982141 9.1508928,2.47767855 11.4669642,1.48660712 C13.7830357,0.495535681 16.2107142,-3.65823417e-08 18.75,-3.65823427e-08 C21.2892857,-3.65823438e-08 23.7169643,0.495535681 26.0330357,1.48660712 C28.3491071,2.47767855 30.34375,3.80982141 32.0169643,5.48303569 C33.6901786,7.15624998 35.0223214,9.15089283 36.0133928,11.4669643 C37.0044643,13.7830357 37.5,16.2107143 37.5,18.75 Z" id="Shape"></path>
                </g>
            </g>
        </g>
    </g>
</svg>