<?xml version="1.0" encoding="UTF-8"?>
<svg width="39px" height="39px" viewBox="0 0 39 39" version="1.1" xmlns="http://www.w3.org/2000/svg" xmlns:xlink="http://www.w3.org/1999/xlink">
    <!-- Generator: Sketch 51.1 (57501) - http://www.bohemiancoding.com/sketch -->
    <title>Medium_White</title>
    <desc>Created with Sketch.</desc>
    <defs></defs>
    <g id="Web-Blue-Marks" stroke="none" stroke-width="1" fill="none" fill-rule="evenodd">
        <g id="Web" transform="translate(-675.000000, -3338.000000)" fill="#FFFFFF">
            <g id="Group-3" transform="translate(464.000000, 3338.000000)">
                <g id="Medium" transform="translate(211.666667, 0.000000)">
                    <path d="M0,19.1666667 C0,8.58120844 8.58120844,0 19.1666667,0 C29.7521249,0 38.3333333,8.58120844 38.3333333,19.1666667 C38.3333333,29.7521249 29.7521249,38.3333333 19.1666667,38.3333333 C8.58120844,38.3333333 0,29.7521249 0,19.1666667 Z M16.0844084,14.0051635 L9.94786751,10.9732209 C9.89536315,10.9472458 9.84531035,10.9349986 9.80009259,10.9349986 C9.73567089,10.9349986 9.68119166,10.9600315 9.6428519,11.0057233 C9.60532932,11.0504056 9.58333333,11.1150067 9.58333333,11.1958253 L9.58333333,24.211995 C9.58333333,24.4335228 9.74738393,24.6957626 9.94786751,24.7948176 L15.6187472,27.5966863 C15.6975378,27.6356488 15.7725829,27.654087 15.8404096,27.654087 C16.0314955,27.654087 16.1655144,27.5079944 16.1655144,27.2627796 L16.1655144,14.134904 C16.1655144,14.0799931 16.1341207,14.0297254 16.0844084,14.0051635 Z M23.27199,24.8697817 L28.7824964,27.5923796 C29.0832218,27.740962 29.3292637,27.5906972 29.3292637,27.2584056 L29.3292637,15.143286 L23.27199,24.8697817 Z M16.7472845,14.9794281 L16.7472845,21.650025 L22.7477636,24.6147422 L16.7472845,14.9794281 Z M29.1850299,13.9736705 L22.9299966,10.8831831 C22.9015993,10.8691189 22.8706823,10.8625916 22.8397654,10.861784 C22.8377224,10.8617167 22.8357475,10.8611111 22.8337046,10.8611111 C22.7576379,10.8611111 22.6819118,10.8988624 22.6409162,10.9646074 L18.785557,17.1554741 L23.0892803,24.0663062 L29.2450251,14.1816724 C29.2906515,14.1083233 29.2629352,14.012162 29.1850299,13.9736705 Z" id="Combined-Shape"></path>
                </g>
            </g>
        </g>
    </g>
</svg>