<?xml version="1.0" encoding="UTF-8"?>
<svg width="39px" height="39px" viewBox="0 0 39 39" version="1.1" xmlns="http://www.w3.org/2000/svg" xmlns:xlink="http://www.w3.org/1999/xlink">
    <!-- Generator: Sketch 51.1 (57501) - http://www.bohemiancoding.com/sketch -->
    <title>Group 7</title>
    <desc>Created with Sketch.</desc>
    <defs></defs>
    <g id="Web-Blue-Marks" stroke="none" stroke-width="1" fill="none" fill-rule="evenodd">
        <g id="Web" transform="translate(-622.000000, -3339.000000)">
            <g id="Group-3" transform="translate(464.000000, 3338.000000)">
                <g id="Group-4" transform="translate(158.333333, 1.666667)">
                    <g id="Group-7">
                        <circle id="Oval-2" fill="#FFFFFF" cx="19.1666667" cy="19.1666667" r="19.1666667"></circle>
                        <path d="M26.2760893,15.3080631 C25.4648078,14.4968349 24.5205295,13.9032532 23.5164025,13.5207228 C24.1015891,11.7993359 26.1763416,11.1727774 26.1763416,11.1727774 C26.1763416,11.1727774 21.3352525,8.65994832 15.988775,9.66244182 C14.2066158,9.94604196 12.497605,11.0408704 11.2474336,12.4852525 C8.53429577,15.6180447 8.89338754,20.3337214 12.0520652,23.0246251 C12.5375041,23.4401322 13.6214292,24.0864767 13.6413787,24.1194534 C12.9298451,25.9265799 10.6555972,26.4212313 10.6555972,26.4212313 C10.6555972,26.4212313 13.6613283,28.3009067 17.6977858,28.7889627 C18.7684113,28.9208697 19.9055352,28.9538465 21.0825583,28.8285348 C22.9511655,28.6768417 24.8131228,27.6875389 26.2295403,26.2959196 C29.2951201,23.2752484 29.3217195,18.3551158 26.2760893,15.3080631 Z M24.8929209,25.0955656 C23.7491471,26.2167754 22.0401363,26.9290735 20.7234665,27.0280037 C19.7924878,27.1203386 18.7950106,27.1335293 17.8374326,27.014813 C16.4276649,26.8433339 15.4102382,26.4542081 14.4127611,26.078273 C14.9181495,25.590217 15.4235379,24.9174911 15.6296832,24.3371001 C15.7626801,23.9941418 15.7493804,23.6116114 15.5897841,23.2752484 C14.5191586,21.0724008 14.984648,18.43426 16.7468576,16.7194685 C18.0236283,15.4729469 19.7791881,14.8859606 21.5613473,15.1036073 C22.8713673,15.2618957 24.06169,15.8356913 24.9926687,16.765636 C27.2536169,19.0344371 27.1738187,22.8729319 24.8929209,25.0955656 Z" id="Shape" fill="#373737"></path>
                    </g>
                </g>
            </g>
        </g>
    </g>
</svg>