<?xml version="1.0" encoding="UTF-8"?>
<svg width="40px" height="39px" viewBox="0 0 40 39" version="1.1" xmlns="http://www.w3.org/2000/svg" xmlns:xlink="http://www.w3.org/1999/xlink">
    <!-- Generator: Sketch 51.1 (57501) - http://www.bohemiancoding.com/sketch -->
    <title>Telegram_White</title>
    <desc>Created with Sketch.</desc>
    <defs></defs>
    <g id="Web-Blue-Marks" stroke="none" stroke-width="1" fill="none" fill-rule="evenodd">
        <g id="Web" transform="translate(-569.000000, -3338.000000)" fill="#FFFFFF">
            <g id="Group-3" transform="translate(464.000000, 3338.000000)">
                <g id="Telegram" transform="translate(105.833333, 0.000000)">
                    <path d="M15.9789306,23.0650069 L15.6527778,27.9513889 C16.1319444,27.9513889 16.3436562,27.73225 16.6111111,27.4722222 L18.9132759,25.2336548 L23.7027778,28.7722014 C24.5842049,29.2585396 25.2203625,29.0067375 25.4399167,27.9538646 L28.5840486,13.1375521 C28.9059528,11.8469646 28.0920882,11.2616146 27.2488667,11.6444368 L8.786575,18.763416 C7.52635069,19.2688889 7.53369792,19.9719701 8.5568625,20.2852493 L13.2947028,21.7640056 L24.2633069,14.8440403 C24.7811104,14.5300424 25.2563479,14.6988544 24.8662903,15.0450347 L15.9790574,23.0650834 Z M19.1666667,38.3333333 C8.58120896,38.3333333 0,29.7521244 0,19.1666667 C0,8.58120896 8.58120896,0 19.1666667,0 C29.7521244,0 38.3333333,8.58120896 38.3333333,19.1666667 C38.3333333,29.7521244 29.7521244,38.3333333 19.1666667,38.3333333 Z" id="Combined-Shape"></path>
                </g>
            </g>
        </g>
    </g>
</svg>