<?xml version="1.0" encoding="UTF-8"?>
<svg width="39px" height="39px" viewBox="0 0 39 39" version="1.1" xmlns="http://www.w3.org/2000/svg" xmlns:xlink="http://www.w3.org/1999/xlink">
    <!-- Generator: Sketch 51.1 (57501) - http://www.bohemiancoding.com/sketch -->
    <title>Twitter_White</title>
    <desc>Created with Sketch.</desc>
    <defs></defs>
    <g id="Web-Blue-Marks" stroke="none" stroke-width="1" fill="none" fill-rule="evenodd">
        <g id="Web" transform="translate(-516.000000, -3338.000000)" fill="#FFFFFF">
            <g id="Group-3" transform="translate(464.000000, 3338.000000)">
                <g id="Twitter" transform="translate(52.500000, 0.000000)">
                    <path d="M0,19.1666667 C0,8.58120844 8.58120844,0 19.1666667,0 C29.7521249,0 38.3333333,8.58120844 38.3333333,19.1666667 C38.3333333,29.7521249 29.7521249,38.3333333 19.1666667,38.3333333 C8.58120844,38.3333333 0,29.7521249 0,19.1666667 Z M18.5926271,15.5789068 L18.6328472,16.2421167 L17.9625128,16.1609073 C15.5224957,15.8496047 13.3908325,14.7938828 11.5809297,13.0208114 L10.6960884,12.1410431 L10.4681747,12.7907182 C9.98553395,14.238952 10.2938878,15.7683953 11.2993893,16.7970474 C11.8356568,17.365513 11.7149966,17.4467224 10.7899352,17.10835 C10.4681747,17.0000708 10.1866343,16.9188615 10.1598209,16.9594661 C10.0659741,17.0542104 10.3877346,18.285886 10.6424616,18.7731422 C10.9910355,19.449887 11.7015899,20.1130969 12.4791778,20.5056089 L13.1361054,20.8169115 L12.3585176,20.8304464 C11.6077431,20.8304464 11.5809297,20.8439813 11.6613698,21.1282141 C11.9295036,22.0079824 12.9886319,22.9418902 14.1684203,23.3479371 L14.9996349,23.6321699 L14.2756738,24.0652866 C13.2031389,24.6878918 11.9429103,25.0397991 10.6826817,25.0668689 C10.0793808,25.0804038 9.58333333,25.1345434 9.58333333,25.1751481 C9.58333333,25.310497 11.2189492,26.0684512 12.170824,26.3662189 C15.0264483,27.2459872 18.4183402,26.8670101 20.9656107,25.3646366 C22.7755135,24.2953798 24.5854162,22.1704011 25.4300375,20.1130969 C25.8858649,19.0167704 26.3416923,17.0136057 26.3416923,16.0526281 C26.3416923,15.4300229 26.3819123,15.3488135 27.1326868,14.6043942 C27.5751075,14.1712776 27.9907148,13.6975562 28.0711549,13.5622072 C28.2052218,13.3050442 28.1918151,13.3050442 27.508074,13.5351374 C26.3685056,13.9411843 26.2076254,13.8870447 26.7707063,13.2779744 C27.1863136,12.8448577 27.682361,12.0598338 27.682361,11.8297405 C27.682361,11.7891359 27.4812607,11.8568103 27.253347,11.9786244 C27.0120266,12.1139734 26.4757591,12.3169968 26.0735585,12.4388109 L25.3495974,12.6689041 L24.6926697,12.2222525 C24.3306892,11.9786244 23.8212351,11.7079265 23.5531013,11.6267171 C22.8693603,11.4372286 21.8236387,11.4642983 21.2069311,11.6808567 C19.5310952,12.289927 18.4719669,13.8599749 18.5926271,15.5789068 Z" id="Combined-Shape"></path>
                </g>
            </g>
        </g>
    </g>
</svg>