<?xml version="1.0" encoding="UTF-8"?>
<svg width="38px" height="39px" viewBox="0 0 38 39" version="1.1" xmlns="http://www.w3.org/2000/svg" xmlns:xlink="http://www.w3.org/1999/xlink">
    <!-- Generator: Sketch 51.1 (57501) - http://www.bohemiancoding.com/sketch -->
    <title>wechat_F</title>
    <desc>Created with Sketch.</desc>
    <defs></defs>
    <g id="Web-Blue-Marks" stroke="none" stroke-width="1" fill="none" fill-rule="evenodd">
        <g id="Web" transform="translate(-939.000000, -3338.000000)" fill="#FFFFFF" fill-rule="nonzero">
            <g id="Group-3" transform="translate(464.000000, 3338.000000)">
                <g id="wechat_F" transform="translate(475.000000, 0.833333)">
                    <path d="M16.9365,23.78475 C15.4016597,24.0262362 13.8316651,23.9068303 12.351,23.436 C11.87775,23.283 10.14825,25.0935 9.7185,24.8745 C9.4635,24.744 10.491,22.60275 10.25325,22.45125 C8.12775,21.09375 6.75,18.91275 6.75,16.4535 C6.75,12.33675 10.61175,9 15.375,9 C19.86675,9 23.556,11.967 23.9625,15.75675 C27.741,15.9045 30.75,18.519 30.75,21.72225 C30.75,23.712 29.58975,25.47375 27.80475,26.55975 C27.46875,26.76375 28.53225,28.48725 28.15575,28.641 C27.92325,28.7355 26.26275,27.276 26.01675,27.3495 C25.269,27.573 24.46425,27.6945 23.625,27.6945 C20.55525,27.6945 17.9385,26.067 16.9365,23.78475 Z M16.542,22.37475 C16.1625,22.42725 15.7725,22.455 15.375,22.455 C14.3805,22.455 13.43325,22.284 12.573,21.975 C12.4875,21.94425 12.1815,21.852 12.0165,21.975 C11.6445,22.25175 11.145,22.82625 11.145,22.82625 C11.145,22.82625 11.328,22.40775 11.3895,21.79725 C11.41725,21.51825 10.99125,21.3225 10.9065,21.26475 C9.2865,20.16975 8.25,18.36 8.25,16.4775 C8.25,13.176 11.43975,10.5 15.375,10.5 C19.04925,10.5 22.074,12.8325 22.45875,15.8295 C19.0785,16.296 16.5,18.7575 16.5,21.72225 C16.5,21.94275 16.51425,22.161 16.542,22.37475 Z M18.75,37.5 C29.10525,37.5 37.5,29.10525 37.5,18.75 C37.5,8.39475 29.10525,0 18.75,0 C8.39475,0 0,8.39475 0,18.75 C0,29.10525 8.39475,37.5 18.75,37.5 Z M12.375,15 C12.9963203,15 13.5,14.4963203 13.5,13.875 C13.5,13.2536797 12.9963203,12.75 12.375,12.75 C11.7536797,12.75 11.25,13.2536797 11.25,13.875 C11.25,14.4963203 11.7536797,15 12.375,15 Z M18.375,15 C18.9963203,15 19.5,14.4963203 19.5,13.875 C19.5,13.2536797 18.9963203,12.75 18.375,12.75 C17.7536797,12.75 17.25,13.2536797 17.25,13.875 C17.25,14.4963203 17.7536797,15 18.375,15 Z M21,20.25 C21.4142136,20.25 21.75,19.9142136 21.75,19.5 C21.75,19.0857864 21.4142136,18.75 21,18.75 C20.5857864,18.75 20.25,19.0857864 20.25,19.5 C20.25,19.9142136 20.5857864,20.25 21,20.25 Z M25.5,20.25 C25.9142136,20.25 26.25,19.9142136 26.25,19.5 C26.25,19.0857864 25.9142136,18.75 25.5,18.75 C25.0857864,18.75 24.75,19.0857864 24.75,19.5 C24.75,19.9142136 25.0857864,20.25 25.5,20.25 Z" id="Shape"></path>
                </g>
            </g>
        </g>
    </g>
</svg>