<?xml version="1.0" encoding="UTF-8"?>
<svg width="38px" height="39px" viewBox="0 0 38 39" version="1.1" xmlns="http://www.w3.org/2000/svg" xmlns:xlink="http://www.w3.org/1999/xlink">
    <!-- Generator: Sketch 51.1 (57501) - http://www.bohemiancoding.com/sketch -->
    <title>Youtube_White</title>
    <desc>Created with Sketch.</desc>
    <defs></defs>
    <g id="Web-Blue-Marks" stroke="none" stroke-width="1" fill="none" fill-rule="evenodd">
        <g id="Web" transform="translate(-833.000000, -3339.000000)" fill="#FFFFFF">
            <g id="Group-3" transform="translate(464.000000, 3338.000000)">
                <g id="Youtube" transform="translate(369.166667, 1.666667)">
                    <path d="M0,19.1666667 C0,8.58120844 8.45273019,0 18.8797025,0 C29.3066747,0 37.7594049,8.58120844 37.7594049,19.1666667 C37.7594049,29.7521249 29.3066747,38.3333333 18.8797025,38.3333333 C8.45273019,38.3333333 0,29.7521249 0,19.1666667 Z M28.7060109,15.3086373 C28.7060109,15.3086373 28.5093169,13.8690296 27.9066667,13.23508 C27.1418852,12.4026537 26.2847268,12.3987364 25.8919672,12.3504231 C23.0779235,12.1388889 18.8568579,12.1388889 18.8568579,12.1388889 L18.8480601,12.1388889 C18.8480601,12.1388889 14.6269945,12.1388889 11.8129508,12.3504231 C11.4195628,12.3987364 10.5630328,12.4026537 9.79762295,13.23508 C9.19497268,13.8690296 8.9989071,15.3086373 8.9989071,15.3086373 C8.9989071,15.3086373 8.79781421,16.9996051 8.79781421,18.6899199 L8.79781421,20.2751206 C8.79781421,21.9660883 8.9989071,23.6564032 8.9989071,23.6564032 C8.9989071,23.6564032 9.19497268,25.0960109 9.79762295,25.7299606 C10.5630328,26.5623868 11.5678689,26.5362714 12.0153005,26.6231049 C13.6240437,26.7837142 18.852459,26.8333333 18.852459,26.8333333 C18.852459,26.8333333 23.0779235,26.8268045 25.8919672,26.6152703 C26.2847268,26.5663041 27.1418852,26.5623868 27.9066667,25.7299606 C28.5093169,25.0960109 28.7060109,23.6564032 28.7060109,23.6564032 C28.7060109,23.6564032 28.9071038,21.9660883 28.9071038,20.2751206 L28.9071038,18.6899199 C28.9071038,16.9996051 28.7060109,15.3086373 28.7060109,15.3086373 Z" id="Combined-Shape"></path>
                    <polygon id="Path" points="16.7761749 22.1959032 16.7755464 16.3258295 22.2088251 19.2709861"></polygon>
                </g>
            </g>
        </g>
    </g>
</svg>