<?xml version="1.0" encoding="UTF-8"?>
<svg width="60px" height="56px" viewBox="0 0 60 56" version="1.1" xmlns="http://www.w3.org/2000/svg" xmlns:xlink="http://www.w3.org/1999/xlink">
    <!-- Generator: Sketch 50.2 (55047) - http://www.bohemiancoding.com/sketch -->
    <title>Icons / Compatibility</title>
    <desc>Created with Sketch.</desc>
    <defs>
        <linearGradient x1="50%" y1="0%" x2="50%" y2="100%" id="linearGradient-1">
            <stop stop-color="#E1335D" offset="0%"></stop>
            <stop stop-color="#C62D73" offset="100%"></stop>
        </linearGradient>
    </defs>
    <g id="Icons-/-Compatibility" stroke="none" stroke-width="1" fill="none" fill-rule="evenodd">
        <g id="networking" fill-rule="nonzero">
            <path d="M42.0733835,17.5873644 C42.0733835,18.7383824 41.1427731,19.6567479 40.004,19.6567479 L19.9958776,19.6567479 C18.8448595,19.6567479 17.926494,18.7261375 17.926494,17.5873644 L17.926494,3.22412836 C17.926494,2.07311027 18.8571044,1.15474482 19.9958776,1.15474482 L40.004,1.15474482 C41.1550181,1.15474482 42.0733835,2.0853552 42.0733835,3.22412836 L42.0733835,17.5873644 Z" id="Shape"></path>
            <path d="M40.004,20.7710313 C41.7550168,20.7710313 43.187667,19.3383812 43.187667,17.5873644 L43.187667,3.22412836 C43.187667,1.4731115 41.7550168,0.0404613867 40.004,0.0404613867 L19.9958776,0.0404613867 C18.2448607,0.0404613867 16.8122106,1.4731115 16.8122106,3.22412836 L16.8122106,17.5873644 C16.8122106,19.3383812 18.2448607,20.7710313 19.9958776,20.7710313 L28.8856553,20.7710313 L28.8856553,23.7342906 L25.9713756,23.7342906 C25.359132,23.7342906 24.8570921,24.2363304 24.8570921,24.848574 C24.8570921,25.4608177 25.359132,25.9628575 25.9713756,25.9628575 L34.0162571,25.9628575 C34.6285007,25.9628575 35.1305405,25.4608177 35.1305405,24.848574 C35.1305405,24.2363304 34.6285007,23.7342906 34.0162571,23.7342906 L31.1019773,23.7342906 L31.1019773,20.7710313 L40.004,20.7710313 Z M19.0285326,17.5873644 L19.0285326,3.22412836 C19.0285326,2.69759883 19.4571032,2.2567834 19.9958776,2.2567834 L40.004,2.2567834 C40.5305295,2.2567834 40.9713449,2.68535396 40.9713449,3.22412836 L40.9713449,17.5873644 C40.9713449,18.1138939 40.5427744,18.5547093 40.004,18.5547093 L19.9958776,18.5547093 C19.469348,18.5547093 19.0285326,18.1261387 19.0285326,17.5873644 Z" id="Shape" fill="url(#linearGradient-1)"></path>
            <path d="M25.2611729,47.6117929 C25.2611729,48.762811 24.3305626,49.6811764 23.1917894,49.6811764 L3.18366697,49.6811764 C2.03264889,49.6811764 1.11428344,48.7505661 1.11428344,47.6117929 L1.11428344,33.2485569 C1.11428344,32.0975388 2.04489381,31.1791734 3.18366697,31.1791734 L23.1917894,31.1791734 C24.3428075,31.1791734 25.2611729,32.1097837 25.2611729,33.2485569 L25.2611729,47.6117929 Z M58.897839,47.6117929 C58.897839,48.762811 57.9672286,49.6811764 56.8284554,49.6811764 L36.820333,49.6811764 C35.6693149,49.6811764 34.7509495,48.7505661 34.7509495,47.6117929 L34.7509495,33.2485569 C34.7509495,32.0975388 35.6815598,31.1791734 36.820333,31.1791734 L56.8162106,31.1791734 C57.9672287,31.1791734 58.8855941,32.1097837 58.8855941,33.2485569 L58.8855941,47.6117929 L58.897839,47.6117929 Z" id="Shape"></path>
            <path d="M23.1795445,30.0526451 L3.18366697,30.0526451 C1.43265012,30.0526451 0,31.4852952 0,33.2363121 L0,47.599548 C0,49.3505649 1.43265012,50.783215 3.18366697,50.783215 L12.0734447,50.783215 L12.0734447,53.7464743 L9.159165,53.7464743 C8.54692137,53.7464743 8.04488156,54.2485141 8.04488156,54.8607577 C8.04488156,55.4730013 8.54692137,55.9750412 9.159165,55.9750412 L17.2040465,55.9750412 C17.8162901,55.9750412 18.3183299,55.4730013 18.3183299,54.8607577 C18.3183299,54.2485141 17.8162901,53.7464743 17.2040465,53.7464743 L14.2897668,53.7464743 L14.2897668,50.783215 L23.1795445,50.783215 C24.9305614,50.783215 26.3632115,49.3505649 26.3632115,47.599548 L26.3632115,33.2485569 C26.3632115,31.4852952 24.9428063,30.0526451 23.1795445,30.0526451 Z M24.1468895,47.6117929 C24.1468895,48.1383224 23.7183189,48.5791379 23.1795445,48.5791379 L3.18366697,48.5791379 C2.65713744,48.5791379 2.21632201,48.1505673 2.21632201,47.6117929 L2.21632201,33.2485569 C2.21632201,32.7220274 2.64489258,32.281212 3.18366697,32.281212 L23.1917894,32.281212 C23.7183189,32.281212 24.1591344,32.7097825 24.1591344,33.2485569 L24.1591344,47.6117929 L24.1468895,47.6117929 Z M56.8162106,30.0526451 L36.820333,30.0526451 C35.0693162,30.0526451 33.636666,31.4852952 33.636666,33.2363121 L33.636666,47.599548 C33.636666,49.3505649 35.0693162,50.783215 36.820333,50.783215 L45.7101108,50.783215 L45.7101108,53.7464743 L42.795831,53.7464743 C42.1835874,53.7464743 41.6815476,54.2485141 41.6815476,54.8607577 C41.6815476,55.4730013 42.1835874,55.9750412 42.795831,55.9750412 L50.8407126,55.9750412 C51.4529562,55.9750412 51.954996,55.4730013 51.954996,54.8607577 C51.954996,54.2485141 51.4529562,53.7464743 50.8407126,53.7464743 L47.9264328,53.7464743 L47.9264328,50.783215 L56.8162106,50.783215 C58.5672274,50.783215 59.9998775,49.3505649 59.9998775,47.599548 L59.9998775,33.2485569 C60.0121224,31.4852952 58.5794723,30.0526451 56.8162106,30.0526451 Z M57.7835555,47.6117929 C57.7835555,48.1383224 57.354985,48.5791379 56.8162106,48.5791379 L36.820333,48.5791379 C36.2938035,48.5791379 35.852988,48.1505673 35.852988,47.6117929 L35.852988,33.2485569 C35.852988,32.7220274 36.2815586,32.281212 36.820333,32.281212 L56.8162106,32.281212 C57.3427401,32.281212 57.7835555,32.7097825 57.7835555,33.2485569 L57.7835555,47.6117929 Z M4.50611326,25.9506126 C5.11835689,25.9506126 5.6203967,25.4485728 5.6203967,24.8363292 L5.6203967,9.5914623 L12.2816076,9.5914623 C12.8938512,9.5914623 13.395891,9.0894225 13.395891,8.47717887 C13.395891,7.86493523 12.8938512,7.36289543 12.2816076,7.36289543 L4.50611326,7.36289543 C3.89386963,7.36289543 3.39182982,7.86493523 3.39182982,8.47717887 L3.39182982,24.848574 C3.39182982,25.4608177 3.89386963,25.9506126 4.50611326,25.9506126 Z M55.4937643,25.9506126 C56.1060079,25.9506126 56.6080477,25.4485728 56.6080477,24.8363292 L56.6080477,8.47717887 C56.6080477,7.86493523 56.1060079,7.36289543 55.4937643,7.36289543 L47.7182699,7.36289543 C47.1060263,7.36289543 46.6039865,7.86493523 46.6039865,8.47717887 C46.6039865,9.0894225 47.1060263,9.5914623 47.7182699,9.5914623 L54.3794808,9.5914623 L54.3794808,24.848574 C54.3917257,25.4608177 54.8815206,25.9506126 55.4937643,25.9506126 Z" id="Shape" fill="url(#linearGradient-1)"></path>
        </g>
    </g>
</svg>