<?xml version="1.0" encoding="UTF-8"?>
<svg width="20px" height="14px" viewBox="0 0 20 14" version="1.1" xmlns="http://www.w3.org/2000/svg" xmlns:xlink="http://www.w3.org/1999/xlink">
    <!-- Generator: Sketch 50.2 (55047) - http://www.bohemiancoding.com/sketch -->
    <title>email</title>
    <desc>Created with Sketch.</desc>
    <defs></defs>
    <g id="Mobile-call-to-action" stroke="none" stroke-width="1" fill="none" fill-rule="evenodd">
        <g id="Theme-2-3-Copy" transform="translate(-35.000000, -368.000000)" fill="#91919B" fill-rule="nonzero">
            <g id="email" transform="translate(35.000000, 368.000000)">
                <path d="M19.3008117,0.0138812752 L0.699806376,0.0138812752 C0.317726286,0.0138812752 0.00649926174,0.3251083 0.00649926174,0.706547405 L0.00649926174,12.3136555 C0.00649926174,12.6957585 0.317726286,13.0062072 0.699806376,13.0062072 L19.3008117,13.0062072 C19.6830292,13.0062072 19.9934779,12.6957585 19.9934779,12.3136555 L19.9934779,0.706547405 C19.9934779,0.3251083 19.6830292,0.0138812752 19.3008117,0.0138812752 Z M9.49914083,9.90840519 C9.63315501,10.0425567 9.81153537,10.1166148 9.99996566,10.1166148 C10.0644774,10.1166148 10.1276843,10.1078011 10.1883502,10.0911123 C10.3092468,10.0609625 10.4230467,10.0001594 10.5150298,9.9084281 L13.3400188,7.07000105 L13.3560437,7.05393034 L18.669544,12.2549127 L1.31575886,12.2708689 L6.64459727,7.05388454 L9.49914083,9.90840519 Z M9.99996566,9.46098917 L1.25124709,0.712339262 L18.766014,0.696405906 L9.99996566,9.46098917 Z M6.20416356,6.61345081 L0.642917875,12.0741973 L0.642917875,1.05218224 L6.20416356,6.61345081 Z M13.796569,6.61340501 L19.357746,1.05218224 L19.357746,12.0735563 L13.796569,6.61340501 Z" id="Shape"></path>
            </g>
        </g>
    </g>
</svg>