<?xml version="1.0" encoding="UTF-8"?>
<svg width="18px" height="18px" viewBox="0 0 18 18" version="1.1" xmlns="http://www.w3.org/2000/svg" xmlns:xlink="http://www.w3.org/1999/xlink">
    <!-- Generator: Sketch 50.2 (55047) - http://www.bohemiancoding.com/sketch -->
    <title>phone</title>
    <desc>Created with Sketch.</desc>
    <defs></defs>
    <g id="Mobile-call-to-action" stroke="none" stroke-width="1" fill="none" fill-rule="evenodd">
        <g id="Theme-2-3-Copy" transform="translate(-36.000000, -423.000000)" fill="#91919B" fill-rule="nonzero">
            <g id="phone" transform="translate(36.000000, 423.000000)">
                <path d="M17.21529,13.2591027 C16.7256628,12.8086458 16.1576953,12.3581888 15.7464086,12.0839976 C15.2176113,11.711881 14.6496438,11.3397644 14.1208465,11.1047433 C13.2982729,10.6934566 12.9849115,10.6151162 12.7694756,10.6151162 C12.397359,10.6151162 12.0839976,10.8109671 11.7902213,11.1830837 C11.6335407,11.4181047 11.4572749,11.7510512 11.3397644,12.0448274 C11.261424,12.2406783 11.1047433,12.5736247 11.0068179,12.6911353 C10.8501372,12.6519651 10.3996803,12.4561142 9.65544704,11.9664871 C8.96996905,11.47686 8.22573581,10.8697223 7.65776834,10.340925 C7.08980087,9.77295755 6.5218334,9.02872431 6.03220626,8.34324633 C5.54257913,7.61859817 5.34672828,7.16814121 5.30755811,6.99187544 C5.42506862,6.9135351 5.75801507,6.75685442 5.95386592,6.65892899 C6.2476422,6.54141848 6.56100357,6.42390797 6.81560967,6.20847203 C7.22689647,5.91469575 7.38357715,5.60133439 7.38357715,5.22921777 C7.38357715,5.03336692 7.34440698,4.70042047 6.89395002,3.87784688 C6.65892899,3.38821975 6.28681237,2.82025228 5.91469575,2.25228481 C5.62091947,1.84099802 5.17046251,1.27303054 4.73959064,0.783403411 C4.21079333,0.254606109 3.83867671,0 3.46656009,0 C2.56564617,0 1.54722174,1.31220071 1.27303054,1.66473225 C0.900913923,2.15435938 0,3.50573026 0,4.72000555 C0,5.8559405 0.783403411,7.36399206 1.42971122,8.44117175 C2.29145498,9.83171281 3.50573026,11.3789345 4.81793098,12.7303054 L5.22921777,13.1415922 C6.58058865,14.4537929 8.08864022,15.6680682 9.51835144,16.529812 C9.9688084,16.8235882 10.4976057,17.0977794 11.026403,17.3523856 C11.1047433,17.3915557 11.1439135,17.3915557 11.2222539,17.3915557 C11.5160301,17.3915557 11.7510512,17.1565347 11.7510512,16.8627584 C11.7510512,16.6669076 11.6335407,16.4514716 11.4181047,16.3731313 C11.0068179,16.1772804 10.556361,15.9226743 10.0667338,15.628898 C8.71536295,14.8063245 7.28565172,13.6703895 5.99303609,12.397359 L5.5817493,11.9860722 C4.30871876,10.6738715 3.17278381,9.24416025 2.35021023,7.91237445 C1.52763665,6.60017374 1.07717969,5.46423879 1.07717969,4.77876081 C1.07717969,4.17162316 1.44929631,3.27070924 2.09560412,2.40896549 C2.3893804,2.03684887 2.6635716,1.68431733 2.95734788,1.42971122 C3.25112416,1.17510512 3.40780484,1.09676478 3.48614518,1.09676478 C3.68199603,1.17510512 4.30871876,1.70390242 5.15087743,2.97693296 C5.48382388,3.46656009 5.79718524,3.95618723 6.01262118,4.40664419 C6.30639746,4.93544149 6.34556763,5.1900476 6.34556763,5.22921777 C6.34556763,5.22921777 6.26722729,5.30755811 6.14971678,5.38589845 C5.99303609,5.46423879 5.73842998,5.5817493 5.54257913,5.67967473 C5.24880285,5.79718524 5.01378183,5.91469575 4.75917572,6.05179135 C4.3870591,6.28681237 4.23037842,6.58058865 4.23037842,6.9135351 C4.23037842,7.07021578 4.23037842,7.55984292 5.17046251,8.9112138 C5.66008964,9.63586195 6.30639746,10.4584355 6.93312019,11.0655732 C7.54025783,11.6727108 8.36283141,12.3386037 9.08747957,12.8282309 C10.4388505,13.7291448 10.9284776,13.7683149 11.0851583,13.7683149 C11.4181047,13.7683149 11.6922959,13.6116343 11.946902,13.2395176 C12.1035827,13.0436668 12.181923,12.7498905 12.3190186,12.4561142 C12.397359,12.2602634 12.5148695,12.0056573 12.6127949,11.8489766 C12.7303054,11.7706362 12.8086458,11.7314661 12.8086458,11.7314661 C12.8478159,11.7314661 13.102422,11.7706362 13.6312193,12.0644125 C14.0425061,12.2994336 14.5713034,12.5932098 15.0609306,12.9261563 C16.2752059,13.7879 16.8627584,14.3950377 16.9410988,14.5908885 C16.9019286,14.6692289 16.8235882,14.8259096 16.6081523,15.1196858 C16.3731313,15.4134621 16.0010147,15.7268235 15.628898,15.9814296 C15.0609306,16.3927164 14.4537929,16.7256628 13.9641658,16.8823435 C13.7683149,16.9606838 13.6312193,17.1761198 13.6312193,17.3719706 C13.6312193,17.6657469 13.8662404,17.9007679 14.1600167,17.9007679 C14.1991868,17.9007679 14.238357,17.9007679 14.2775272,17.8615978 C14.3166973,17.8615978 14.3166973,17.8615978 14.3558675,17.8224276 C15.2176113,17.5286513 15.9422594,17.0390242 16.314376,16.764833 C16.7256628,16.4710567 17.9791083,15.4134621 17.9791083,14.5517184 C17.9791083,14.1600167 17.7440873,13.7879 17.21529,13.2591027 Z" id="Shape"></path>
            </g>
        </g>
    </g>
</svg>