<?xml version="1.0" encoding="UTF-8"?>
<svg width="60px" height="56px" viewBox="0 0 60 56" version="1.1" xmlns="http://www.w3.org/2000/svg" xmlns:xlink="http://www.w3.org/1999/xlink">
    <!-- Generator: Sketch 50.2 (55047) - http://www.bohemiancoding.com/sketch -->
    <title>Icons / Speed</title>
    <desc>Created with Sketch.</desc>
    <defs>
        <linearGradient x1="98.8823158%" y1="48.8823158%" x2="1.94548719%" y2="48.8823158%" id="linearGradient-1">
            <stop stop-color="#E1335D" offset="0%"></stop>
            <stop stop-color="#C52C73" offset="100%"></stop>
        </linearGradient>
    </defs>
    <g id="Icons-/-Speed" stroke="none" stroke-width="1" fill="none" fill-rule="evenodd">
        <g id="speed" transform="translate(0.000000, -1.000000)" fill-rule="nonzero">
            <path d="M16.7119643,52.8438596 C8.65522475,48.1398682 3.59810709,39.5216449 3.59810709,30.021941 C3.59810709,15.4386983 15.4208872,3.61598656 30.0040615,3.61598656 C44.5855246,3.61598656 56.408031,15.4390405 56.408031,30.021941 C56.408031,39.5499827 51.321412,48.1888089 43.227368,52.8822593 C42.3740197,53.377074 42.0830447,54.4697871 42.5779964,55.3234092 C43.0728112,56.1767576 44.1658664,56.4673902 45.0191464,55.9723017 C54.2041237,50.6467288 59.9803621,40.836679 59.9803621,30.021941 C59.9803621,13.4660104 46.5586233,0.0437923746 30.00413,0.0437923746 C13.4479256,0.0437923746 0.0259129097,13.465805 0.0259129097,30.021941 C0.0259129097,40.8049873 5.76833766,50.5909432 14.9110823,55.9286315 C15.7627879,56.4259789 16.8568015,56.1386317 17.3541488,55.2869261 C17.8513593,54.4348783 17.5639437,53.341207 16.7119643,52.8438596 Z M28.2176221,1.82961572 L28.2176221,7.13088943 C28.2176221,8.11757565 29.0175807,8.91719191 30.003993,8.91719191 C30.9902686,8.91719191 31.7898848,8.11757565 31.7898848,7.13088943 L31.7898849,1.82961572 C31.7898849,0.843340201 30.9902686,0.0437239465 30.0039931,0.0437239465 C29.0175807,0.0437923746 28.2176221,0.843340201 28.2176221,1.82961572 Z M52.734259,15.2716153 L48.9851252,19.0190379 C48.287292,19.7161867 48.287292,20.8472309 48.9844407,21.5447904 C49.6817264,22.242692 50.8127706,22.242692 51.5102616,21.5454748 L55.2594639,17.7981207 C55.9572286,17.1009035 55.9572286,15.9698593 55.2600799,15.2722999 C54.5628627,14.5744666 53.43175,14.5744666 52.734259,15.2716153 Z M12.2210532,43.9283643 L8.47212482,47.6775666 C7.77470227,48.3749207 7.77470227,49.505828 8.47212482,50.2031821 C9.16968421,50.90081 10.3003863,50.90081 10.9980141,50.2031821 L14.7472164,46.4541852 C15.4446389,45.7566942 15.4446389,44.6258553 14.7472164,43.9283643 C14.0496569,43.2307364 12.9186127,43.2307364 12.2210532,43.9283643 Z M51.7040395,47.6778403 L47.9566854,43.9287066 C47.2591944,43.2307365 46.1284239,43.2307365 45.4305908,43.9280221 C44.7330998,44.6253077 44.7327575,45.756352 45.4299747,46.4538429 L49.1773288,50.2028399 C49.8748198,50.9005362 51.0055903,50.90081 51.7034235,50.2036613 C52.4009829,49.5063071 52.4013252,48.3753997 51.7040395,47.6778403 Z M11.4536078,19.0192433 L7.70632214,15.2718892 C7.00876274,14.5744666 5.87799224,14.5744666 5.18043284,15.2718892 C4.48294187,15.9694486 4.48294187,17.1001506 5.18043284,17.7977785 L8.92744475,21.5451326 C9.62500415,22.242692 10.7560484,22.242692 11.4536079,21.5451326 C12.1510988,20.8475732 12.1510988,19.7168027 11.4536078,19.0192433 Z" id="Shape" fill="url(#linearGradient-1)"></path>
            <path d="M44.5481517,13.0695563 C45.2456427,12.3720653 46.3764132,12.3720653 47.0739726,13.0695563 C47.7714635,13.7670472 47.7714635,14.8982284 47.0739726,15.5956509 L35.919935,26.7487987 C36.5294011,27.7753219 36.879584,28.9742672 36.879584,30.25494 C36.879584,34.0528092 33.8009724,37.1313523 30.0031033,37.1313523 C28.722362,37.1313523 27.5232114,36.7812379 26.4966881,36.1715664 L22.7220229,39.9458892 C22.0246004,40.6433802 20.8937615,40.6431748 20.1962705,39.9456155 C19.4987111,39.2480561 19.4987111,38.1172856 20.1962705,37.4197946 L24.0015321,33.6148068 C23.4443607,32.620865 23.1264856,31.4752412 23.1264856,30.2550084 C23.1264856,26.4572761 26.2050971,23.3783908 30.0031032,23.3783908 C31.223336,23.3783223 32.3694389,23.6961975 33.3631754,24.2536427 L44.5481517,13.0695563 Z" id="Shape" fill="#DA3162"></path>
        </g>
    </g>
</svg>