<?xml version="1.0" encoding="UTF-8"?>
<svg width="60px" height="56px" viewBox="0 0 60 56" version="1.1" xmlns="http://www.w3.org/2000/svg" xmlns:xlink="http://www.w3.org/1999/xlink">
    <!-- Generator: Sketch 50.2 (55047) - http://www.bohemiancoding.com/sketch -->
    <title>Icons / Transfer</title>
    <desc>Created with Sketch.</desc>
    <defs>
        <linearGradient x1="50%" y1="0%" x2="50%" y2="100%" id="linearGradient-1">
            <stop stop-color="#E1335D" offset="0%"></stop>
            <stop stop-color="#C12C75" offset="100%"></stop>
        </linearGradient>
    </defs>
    <g id="Icons-/-Transfer" stroke="none" stroke-width="1" fill="none" fill-rule="evenodd">
        <g id="transfer" transform="translate(3.000000, 0.000000)" fill="url(#linearGradient-1)" fill-rule="nonzero">
            <path d="M44.798281,0 L11.2015907,0 C5.0143184,0 0,5.01505366 0,11.2032332 L0,44.804914 C0,50.9877048 5.0143184,56 11.2015907,56 L44.798281,56 C50.9855533,56 56,50.9877048 56,44.804914 L56,11.2032332 C56,5.01505366 50.9855533,0 44.798281,0 Z M50.3950034,41.9992783 C50.3950034,46.6424498 46.6383697,50.4023929 41.998637,50.4023929 L13.9986691,50.4023929 C9.36156622,50.4023929 5.60493248,46.6424498 5.60493248,41.9992783 L5.60493248,14.0034161 C5.60493248,9.36287479 9.36156622,5.59754305 13.9986691,5.59754305 L41.998637,5.59754305 C46.6383696,5.59754305 50.3950034,9.36287479 50.3950034,14.0034161 L50.3950034,41.9992783 Z M29.4026121,18.1981733 L14.0123312,33.5906469 L11.215317,30.7905923 L26.597452,15.3979905 L22.4033097,11.2032333 L33.6076585,11.1895692 L33.5967544,22.3983194 L29.4026121,18.1981733 Z M41.9877329,22.4119192 L44.7846189,25.2093435 L29.4026121,40.6019454 L33.5967544,44.8048498 L22.4033097,44.8048498 L22.4033097,33.6016166 L26.597452,37.8045211 L41.9877329,22.4119192 Z" id="Shape"></path>
        </g>
    </g>
</svg>