<?xml version="1.0" encoding="UTF-8"?>
<svg width="18px" height="18px" viewBox="0 0 18 18" version="1.1" xmlns="http://www.w3.org/2000/svg" xmlns:xlink="http://www.w3.org/1999/xlink">
    <!-- Generator: Sketch 50.2 (55047) - http://www.bohemiancoding.com/sketch -->
    <title>user</title>
    <desc>Created with Sketch.</desc>
    <defs></defs>
    <g id="Mobile-call-to-action" stroke="none" stroke-width="1" fill="none" fill-rule="evenodd">
        <g id="Theme-2-3-Copy" transform="translate(-36.000000, -305.000000)" fill="#91919B" fill-rule="nonzero">
            <g id="user" transform="translate(36.000000, 305.000000)">
                <path d="M9,10 C6.24272727,10 4,7.75727273 4,5 C4,2.24272727 6.24272727,0 9,0 C11.7572727,0 14,2.24272727 14,5 C14,7.75727273 11.7572727,10 9,10 Z M9,0.909090909 C6.74454545,0.909090909 4.90909091,2.74454545 4.90909091,5 C4.90909091,7.25545455 6.74454545,9.09090909 9,9.09090909 C11.2554545,9.09090909 13.0909091,7.25545455 13.0909091,5 C13.0909091,2.74454545 11.2554545,0.909090909 9,0.909090909 Z" id="Shape"></path>
                <path d="M16.5789474,18 L1.42105263,18 C0.637578947,18 0,17.327 0,16.5 C0,16.432 0.0132631579,14.815 1.16052632,13.2 C1.82842105,12.26 2.74263158,11.513 3.87852632,10.981 C5.26547368,10.33 6.98873684,10 9,10 C11.0112632,10 12.7345263,10.33 14.1214737,10.981 C15.2573684,11.514 16.1715789,12.26 16.8394737,13.2 C17.9867368,14.815 18,16.432 18,16.5 C18,17.327 17.3624211,18 16.5789474,18 Z M9,11 C5.69652632,11 3.25894737,11.953 1.95063158,13.756 C0.970105263,15.107 0.948315789,16.488 0.947368421,16.502 C0.947368421,16.776 1.15957895,17 1.42105263,17 L16.5789474,17 C16.8404211,17 17.0526316,16.776 17.0526316,16.5 C17.0526316,16.488 17.0308421,15.107 16.0493684,13.756 C14.7401053,11.953 12.3025263,11 9,11 Z" id="Shape"></path>
            </g>
        </g>
    </g>
</svg>